# Blender 5.0.1
# www.blender.org
mtllib impennaggio_orizzX.mtl
o Piano.001
v -0.114724 0.006853 0.000000
v -0.120969 0.004707 0.000000
v -0.123896 0.001389 0.000000
v -0.125067 -0.000367 -0.000000
v -0.106723 0.008415 0.000000
v -0.096965 0.010171 0.000000
v -0.080962 0.011342 0.000000
v -0.060666 0.012123 0.000000
v -0.023978 0.011732 0.000000
v 0.015248 0.009976 0.000000
v 0.046863 0.007829 0.000000
v 0.085503 0.004316 0.000000
v 0.124144 -0.000172 -0.000000
v 0.085894 -0.004856 -0.000000
v 0.047253 -0.008173 -0.000000
v 0.015834 -0.010320 -0.000000
v -0.025149 -0.012467 -0.000000
v -0.061252 -0.012662 -0.000000
v -0.082133 -0.011491 -0.000000
v -0.096184 -0.010515 -0.000000
v -0.108479 -0.008564 -0.000000
v -0.115309 -0.007002 -0.000000
v -0.120188 -0.005246 -0.000000
v -0.123311 -0.003099 -0.000000
v -0.114724 0.006853 0.400000
v -0.120969 0.004707 0.400000
v -0.123896 0.001389 0.400000
v -0.125067 -0.000367 0.400000
v -0.106723 0.008415 0.400000
v -0.096965 0.010171 0.400000
v -0.080962 0.011342 0.400000
v -0.060666 0.012123 0.400000
v -0.023978 0.011732 0.400000
v 0.015248 0.009976 0.400000
v 0.046863 0.007829 0.400000
v 0.085503 0.004316 0.400000
v 0.124144 -0.000172 0.400000
v 0.085894 -0.004856 0.400000
v 0.047253 -0.008173 0.400000
v 0.015834 -0.010320 0.400000
v -0.025149 -0.012467 0.400000
v -0.061252 -0.012662 0.400000
v -0.082133 -0.011491 0.400000
v -0.096184 -0.010515 0.400000
v -0.108479 -0.008564 0.400000
v -0.115309 -0.007002 0.400000
v -0.120188 -0.005246 0.400000
v -0.123311 -0.003099 0.400000
v -0.114724 0.006853 0.000000
v -0.120969 0.004707 0.000000
v -0.123896 0.001389 0.000000
v -0.125067 -0.000367 -0.000000
v -0.106723 0.008415 0.000000
v -0.096965 0.010171 0.000000
v -0.080962 0.011342 0.000000
v -0.060666 0.012123 0.000000
v -0.023978 0.011732 0.000000
v 0.015248 0.009976 0.000000
v 0.046863 0.007829 0.000000
v 0.085503 0.004316 0.000000
v 0.124144 -0.000172 -0.000000
v 0.085894 -0.004856 -0.000000
v 0.047253 -0.008173 -0.000000
v 0.015834 -0.010320 -0.000000
v -0.025149 -0.012467 -0.000000
v -0.061252 -0.012662 -0.000000
v -0.082133 -0.011491 -0.000000
v -0.096184 -0.010515 -0.000000
v -0.108479 -0.008564 -0.000000
v -0.115309 -0.007002 -0.000000
v -0.120188 -0.005246 -0.000000
v -0.123311 -0.003099 -0.000000
v -0.114724 0.006853 0.400000
v -0.120969 0.004707 0.400000
v -0.123896 0.001389 0.400000
v -0.125067 -0.000367 0.400000
v -0.106723 0.008415 0.400000
v -0.096965 0.010171 0.400000
v -0.080962 0.011342 0.400000
v -0.060666 0.012123 0.400000
v -0.023978 0.011732 0.400000
v 0.015248 0.009976 0.400000
v 0.046863 0.007829 0.400000
v 0.085503 0.004316 0.400000
v 0.124144 -0.000172 0.400000
v 0.085894 -0.004856 0.400000
v 0.047253 -0.008173 0.400000
v 0.015834 -0.010320 0.400000
v -0.025149 -0.012467 0.400000
v -0.061252 -0.012662 0.400000
v -0.082133 -0.011491 0.400000
v -0.096184 -0.010515 0.400000
v -0.108479 -0.008564 0.400000
v -0.115309 -0.007002 0.400000
v -0.120188 -0.005246 0.400000
v -0.123311 -0.003099 0.400000
v -0.114724 0.006854 -0.400000
v -0.120969 0.004707 -0.400000
v -0.123896 0.001389 -0.400000
v -0.125067 -0.000367 -0.400000
v -0.106723 0.008415 -0.400000
v -0.096965 0.010171 -0.400000
v -0.080962 0.011342 -0.400000
v -0.060666 0.012123 -0.400000
v -0.023978 0.011732 -0.400000
v 0.015248 0.009976 -0.400000
v 0.046863 0.007829 -0.400000
v 0.085503 0.004317 -0.400000
v 0.124144 -0.000172 -0.400000
v 0.085894 -0.004856 -0.400000
v 0.047253 -0.008173 -0.400000
v 0.015834 -0.010320 -0.400000
v -0.025149 -0.012467 -0.400000
v -0.061252 -0.012662 -0.400000
v -0.082133 -0.011491 -0.400000
v -0.096184 -0.010515 -0.400000
v -0.108479 -0.008564 -0.400000
v -0.115309 -0.007002 -0.400000
v -0.120188 -0.005246 -0.400000
v -0.123311 -0.003099 -0.400000
vn -0.3387 -0.9409 -0.0000
vn 0.0682 -0.9977 -0.0000
vn 0.0106 0.9999 -0.0000
vn -0.5665 -0.8240 -0.0000
vn -0.1915 0.9815 -0.0000
vn 0.0523 -0.9986 -0.0000
vn 0.0447 0.9990 -0.0000
vn 0.8412 0.5408 -0.0000
vn -0.3251 0.9457 -0.0000
vn 0.0054 -1.0000 -0.0000
vn 0.0677 0.9977 -0.0000
vn -0.7498 0.6616 -0.0000
vn -0.0560 -0.9984 -0.0000
vn 0.0905 0.9959 -0.0000
vn -0.8321 0.5547 -0.0000
vn -0.0693 -0.9976 -0.0000
vn 0.1154 0.9933 -0.0000
vn -0.1772 0.9842 -0.0000
vn -0.1568 -0.9876 -0.0000
vn 0.1215 -0.9926 -0.0000
vn -0.0730 0.9973 -0.0000
vn -0.2228 -0.9749 -0.0000
vn 0.0855 -0.9963 -0.0000
vn -0.0384 0.9993 -0.0000
vn 0.3387 0.9409 -0.0000
vn -0.0682 0.9977 -0.0000
vn -0.0106 -0.9999 -0.0000
vn 0.5665 0.8240 -0.0000
vn 0.1915 -0.9815 -0.0000
vn -0.0523 0.9986 -0.0000
vn -0.0447 -0.9990 -0.0000
vn -0.8412 -0.5408 -0.0000
vn 0.3251 -0.9457 -0.0000
vn -0.0054 1.0000 -0.0000
vn -0.0677 -0.9977 -0.0000
vn 0.7498 -0.6616 -0.0000
vn 0.0560 0.9984 -0.0000
vn -0.0905 -0.9959 -0.0000
vn 0.8321 -0.5547 -0.0000
vn 0.0693 0.9976 -0.0000
vn -0.1154 -0.9933 -0.0000
vn 0.1772 -0.9842 -0.0000
vn 0.1568 0.9876 -0.0000
vn -0.1215 0.9926 -0.0000
vn 0.0730 -0.9973 -0.0000
vn 0.2228 0.9749 -0.0000
vn -0.0855 0.9963 -0.0000
vn 0.0384 -0.9993 -0.0000
vn -0.0000 -0.0000 1.0000
vn -0.0000 -0.0000 -1.0000
vt 0.000000 0.000000
s 0
f 22/1/1 46/1/1 47/1/1 23/1/1
f 15/1/2 39/1/2 40/1/2 16/1/2
f 8/1/3 32/1/3 33/1/3 9/1/3
f 23/1/4 47/1/4 48/1/4 24/1/4
f 1/1/5 25/1/5 29/1/5 5/1/5
f 16/1/6 40/1/6 41/1/6 17/1/6
f 9/1/7 33/1/7 34/1/7 10/1/7
f 4/1/8 28/1/8 48/1/8 24/1/8
f 2/1/9 26/1/9 25/1/9 1/1/9
f 17/1/10 41/1/10 42/1/10 18/1/10
f 10/1/11 34/1/11 35/1/11 11/1/11
f 3/1/12 27/1/12 26/1/12 2/1/12
f 18/1/13 42/1/13 43/1/13 19/1/13
f 11/1/14 35/1/14 36/1/14 12/1/14
f 4/1/15 28/1/15 27/1/15 3/1/15
f 19/1/16 43/1/16 44/1/16 20/1/16
f 12/1/17 36/1/17 37/1/17 13/1/17
f 5/1/18 29/1/18 30/1/18 6/1/18
f 20/1/19 44/1/19 45/1/19 21/1/19
f 13/1/20 37/1/20 38/1/20 14/1/20
f 6/1/21 30/1/21 31/1/21 7/1/21
f 21/1/22 45/1/22 46/1/22 22/1/22
f 14/1/23 38/1/23 39/1/23 15/1/23
f 7/1/24 31/1/24 32/1/24 8/1/24
f 70/1/25 71/1/25 95/1/25 94/1/25
f 63/1/26 64/1/26 88/1/26 87/1/26
f 56/1/27 57/1/27 81/1/27 80/1/27
f 71/1/28 72/1/28 96/1/28 95/1/28
f 49/1/29 53/1/29 77/1/29 73/1/29
f 64/1/30 65/1/30 89/1/30 88/1/30
f 57/1/31 58/1/31 82/1/31 81/1/31
f 52/1/32 72/1/32 96/1/32 76/1/32
f 50/1/33 49/1/33 73/1/33 74/1/33
f 65/1/34 66/1/34 90/1/34 89/1/34
f 58/1/35 59/1/35 83/1/35 82/1/35
f 51/1/36 50/1/36 74/1/36 75/1/36
f 66/1/37 67/1/37 91/1/37 90/1/37
f 59/1/38 60/1/38 84/1/38 83/1/38
f 52/1/39 51/1/39 75/1/39 76/1/39
f 67/1/40 68/1/40 92/1/40 91/1/40
f 60/1/41 61/1/41 85/1/41 84/1/41
f 53/1/42 54/1/42 78/1/42 77/1/42
f 68/1/43 69/1/43 93/1/43 92/1/43
f 61/1/44 62/1/44 86/1/44 85/1/44
f 54/1/45 55/1/45 79/1/45 78/1/45
f 69/1/46 70/1/46 94/1/46 93/1/46
f 62/1/47 63/1/47 87/1/47 86/1/47
f 55/1/48 56/1/48 80/1/48 79/1/48
f 13/1/49 14/1/49 62/1/49 61/1/49
f 41/1/49 40/1/49 88/1/49 89/1/49
f 26/1/49 27/1/49 75/1/49 74/1/49
f 14/1/49 15/1/49 63/1/49 62/1/49
f 42/1/49 41/1/49 89/1/49 90/1/49
f 1/1/49 5/1/49 53/1/49 49/1/49
f 27/1/49 28/1/49 76/1/49 75/1/49
f 15/1/49 16/1/49 64/1/49 63/1/49
f 43/1/49 42/1/49 90/1/49 91/1/49
f 2/1/49 1/1/49 49/1/49 50/1/49
f 30/1/49 29/1/49 77/1/49 78/1/49
f 16/1/49 17/1/49 65/1/49 64/1/49
f 44/1/49 43/1/49 91/1/49 92/1/49
f 3/1/49 2/1/49 50/1/49 51/1/49
f 31/1/49 30/1/49 78/1/49 79/1/49
f 17/1/49 18/1/49 66/1/49 65/1/49
f 45/1/49 44/1/49 92/1/49 93/1/49
f 4/1/49 3/1/49 51/1/49 52/1/49
f 32/1/49 31/1/49 79/1/49 80/1/49
f 18/1/49 19/1/49 67/1/49 66/1/49
f 46/1/49 45/1/49 93/1/49 94/1/49
f 5/1/49 6/1/49 54/1/49 53/1/49
f 33/1/49 32/1/49 80/1/49 81/1/49
f 19/1/49 20/1/49 68/1/49 67/1/49
f 47/1/49 46/1/49 94/1/49 95/1/49
f 6/1/49 7/1/49 55/1/49 54/1/49
f 34/1/49 33/1/49 81/1/49 82/1/49
f 20/1/49 21/1/49 69/1/49 68/1/49
f 48/1/49 47/1/49 95/1/49 96/1/49
f 7/1/49 8/1/49 56/1/49 55/1/49
f 35/1/49 34/1/49 82/1/49 83/1/49
f 21/1/49 22/1/49 70/1/49 69/1/49
f 48/1/49 28/1/49 76/1/49 96/1/49
f 8/1/49 9/1/49 57/1/49 56/1/49
f 36/1/49 35/1/49 83/1/49 84/1/49
f 22/1/49 23/1/49 71/1/49 70/1/49
f 9/1/49 10/1/49 58/1/49 57/1/49
f 37/1/49 36/1/49 84/1/49 85/1/49
f 23/1/49 24/1/49 72/1/49 71/1/49
f 10/1/49 11/1/49 59/1/49 58/1/49
f 38/1/49 37/1/49 85/1/49 86/1/49
f 4/1/49 24/1/49 72/1/49 52/1/49
f 11/1/49 12/1/49 60/1/49 59/1/49
f 39/1/49 38/1/49 86/1/49 87/1/49
f 29/1/49 25/1/49 73/1/49 77/1/49
f 12/1/49 13/1/49 61/1/49 60/1/49
f 40/1/49 39/1/49 87/1/49 88/1/49
f 25/1/49 26/1/49 74/1/49 73/1/49
f 52/1/8 72/1/8 120/1/8 100/1/8
f 50/1/9 49/1/9 97/1/9 98/1/9
f 65/1/10 66/1/10 114/1/10 113/1/10
f 58/1/11 59/1/11 107/1/11 106/1/11
f 51/1/12 50/1/12 98/1/12 99/1/12
f 66/1/13 67/1/13 115/1/13 114/1/13
f 59/1/14 60/1/14 108/1/14 107/1/14
f 52/1/15 51/1/15 99/1/15 100/1/15
f 67/1/16 68/1/16 116/1/16 115/1/16
f 60/1/17 61/1/17 109/1/17 108/1/17
f 53/1/18 54/1/18 102/1/18 101/1/18
f 68/1/19 69/1/19 117/1/19 116/1/19
f 61/1/20 62/1/20 110/1/20 109/1/20
f 54/1/21 55/1/21 103/1/21 102/1/21
f 69/1/22 70/1/22 118/1/22 117/1/22
f 62/1/23 63/1/23 111/1/23 110/1/23
f 55/1/24 56/1/24 104/1/24 103/1/24
f 70/1/1 71/1/1 119/1/1 118/1/1
f 63/1/2 64/1/2 112/1/2 111/1/2
f 56/1/3 57/1/3 105/1/3 104/1/3
f 71/1/4 72/1/4 120/1/4 119/1/4
f 49/1/5 53/1/5 101/1/5 97/1/5
f 64/1/6 65/1/6 113/1/6 112/1/6
f 57/1/7 58/1/7 106/1/7 105/1/7
f 97/1/50 101/1/50 102/1/50 103/1/50 104/1/50 105/1/50 106/1/50 107/1/50 108/1/50 109/1/50 110/1/50 111/1/50 112/1/50 113/1/50 114/1/50 115/1/50 116/1/50 117/1/50 118/1/50 119/1/50 120/1/50 100/1/50 99/1/50 98/1/50
f 73/1/49 74/1/49 75/1/49 76/1/49 96/1/49 95/1/49 94/1/49 93/1/49 92/1/49 91/1/49 90/1/49 89/1/49 88/1/49 87/1/49 86/1/49 85/1/49 84/1/49 83/1/49 82/1/49 81/1/49 80/1/49 79/1/49 78/1/49 77/1/49
